<svg width="17" height="24" viewBox="0 0 17 24" fill="none" xmlns="http://www.w3.org/2000/svg">
    <g clip-path="url(#clip0_18122_237653)">
        <path d="M0.504693 18.4688C0.217186 18.7563 0.217186 19.2224 0.504693 19.5099L4.16409 23.1693C4.45159 23.4568 4.91774 23.4568 5.20525 23.1693L8.86464 19.5099C9.15215 19.2224 9.15215 18.7563 8.86464 18.4688L5.20525 14.8094C4.91774 14.5219 4.45159 14.5219 4.16409 14.8094L0.504693 18.4688Z" fill="white"/>
        <path d="M7.5379 12.4709C7.25039 12.1834 7.25039 11.7172 7.5379 11.4297L11.1973 7.77032C11.4848 7.48281 11.9509 7.48281 12.2384 7.77032L15.8978 11.4297C16.1854 11.7172 16.1854 12.1834 15.8978 12.4709L12.2384 16.1303C11.9509 16.4178 11.4848 16.4178 11.1973 16.1303L7.5379 12.4709Z" fill="white"/>
        <path d="M0.504693 5.43962C0.217186 5.15211 0.217186 4.68597 0.504693 4.39846L4.16409 0.739068C4.45159 0.451561 4.91774 0.451561 5.20525 0.739068L8.86464 4.39846C9.15215 4.68597 9.15215 5.15211 8.86464 5.43962L5.20525 9.09901C4.91774 9.38652 4.45159 9.38652 4.16409 9.09901L0.504693 5.43962Z" fill="white"/>
    </g>
    <defs>
        <clipPath id="clip0_18122_237653">
            <rect width="16.8" height="24" fill="white"/>
        </clipPath>
    </defs>
</svg>
