<?xml version="1.0" encoding="utf-8"?>
<!-- Generator: Adobe Illustrator 23.0.1, SVG Export Plug-In . SVG Version: 6.00 Build 0)  -->
<svg version="1.1" id="Слой_1" xmlns="http://www.w3.org/2000/svg" xmlns:xlink="http://www.w3.org/1999/xlink" x="0px" y="0px"
	 viewBox="0 0 157 283" style="enable-background:new 0 0 157 283;" xml:space="preserve">
<style type="text/css">
	.st0{fill:#FFF200;}
	.st1{fill:#21DFF3;}
	.st2{fill:#FF0078;}
	.st3{fill:none;stroke:#000000;stroke-width:4;stroke-miterlimit:10;}
	.st4{fill:#A42EFF;}
	.st5{fill:none;stroke:#000000;stroke-width:13;stroke-linecap:round;stroke-linejoin:round;stroke-miterlimit:10;}
</style>
<path class="st0" d="M150.5,141.5l-72,45v90l72-45V141.5z"/>
<path class="st1" d="M78.5,96.5l-72,45v-90l72-45V96.5z"/>
<path class="st2" d="M150.5,141.5l-72,45l-72-45l72-45L150.5,141.5z"/>
<path class="st3" d="M6.5,141.5l72-45"/>
<path class="st3" d="M78.5,186.5l72-45"/>
<path class="st4" d="M6.5,231.5l72-45v90L6.5,231.5z"/>
<path class="st5" d="M141.1,135.6L83.2,99.4c-2.9-1.8-4.7-5-4.7-8.5V6.5l-72,45v78.9c0,6.9,3.6,13.3,9.4,17l57.9,36.2
	c2.9,1.8,4.7,5,4.7,8.5v84.5l72-45v-78.9C150.5,145.7,146.9,139.3,141.1,135.6z"/>
<path class="st5" d="M78.5,276.5l-72-45L74,189"/>
</svg>
