<svg width="24" height="24" viewBox="0 0 24 24" fill="none" xmlns="http://www.w3.org/2000/svg">
    <path d="M3.52246 2.84888H19.632C20.1003 2.84888 20.4799 3.22848 20.4799 3.69675V15.567C20.4799 16.0352 20.1003 16.4148 19.632 16.4148H3.52246V2.84888Z" fill="#FF0078"/>
    <path fill-rule="evenodd" clip-rule="evenodd" d="M2.67358 2.84787C2.67358 2.37961 3.05319 2 3.52146 2H19.631C20.5676 2 21.3268 2.75921 21.3268 3.69575V15.566C21.3268 16.5025 20.5676 17.2617 19.631 17.2617H3.52146C3.05319 17.2617 2.67358 16.8821 2.67358 16.4138V2.84787ZM3.52146 2.84787V16.4138H19.631C20.0993 16.4138 20.4789 16.0342 20.4789 15.566V3.69575C20.4789 3.22748 20.0993 2.84787 19.631 2.84787H3.52146Z" fill="#0A0A0A"/>
    <path d="M3.52246 2.84888L17.7139 7.85762C17.8472 7.90466 17.9363 8.03063 17.9363 8.17195V21.031C17.9363 21.2609 17.7089 21.4218 17.492 21.3453L3.52246 16.4148V2.84888Z" fill="#FFF200"/>
    <path fill-rule="evenodd" clip-rule="evenodd" d="M3.52246 16.4148H17.9363V8.536C17.9363 8.17651 17.7096 7.8561 17.3706 7.73646L3.52246 2.84888V16.4148Z" fill="#21DFF3"/>
    <path fill-rule="evenodd" clip-rule="evenodd" d="M18.3572 16.8364H3.09546V2.24731L17.5086 7.33432C18.0171 7.51379 18.3572 7.9944 18.3572 8.53363V16.8364ZM17.3676 7.73409C17.7065 7.85373 17.9332 8.17414 17.9332 8.53363V16.4125H3.5194V2.84651L17.3676 7.73409Z" fill="#0A0A0A"/>
    <path fill-rule="evenodd" clip-rule="evenodd" d="M2.67358 2.99769C2.67358 2.33952 3.32435 1.8791 3.94499 2.09815L17.6518 6.93584C18.3298 7.17513 18.7832 7.81595 18.7832 8.53492V20.3026C18.7832 21.4726 17.6263 22.2911 16.523 21.9017L2.67358 17.0136V2.99769ZM3.52146 2.84779V16.4138L16.8052 21.1022C17.3569 21.2969 17.9353 20.8876 17.9353 20.3026V8.53492C17.9353 8.17543 17.7086 7.85502 17.3696 7.73538L3.52146 2.84779Z" fill="#0A0A0A"/>
</svg>
